<svg width="38" height="60" viewBox="0 0 38 60" fill="none" xmlns="http://www.w3.org/2000/svg">
<path d="M22.6058 26.3089H27.2368L27.0608 27.1449H24.8168L24.3548 29.2679H26.2358L26.0598 30.0929H24.1788L23.6728 32.4469H25.9168L25.7518 33.2939H21.1208L22.6058 26.3089ZM28.5451 26.3089H31.0531L31.4271 31.0389L33.7151 26.3089H34.8041L31.5481 33.2939H28.9521L28.5451 26.3089Z" fill="#886FEE"/>
<path fill-rule="evenodd" clip-rule="evenodd" d="M37.1306 0.802942L0.239212 29.3082L5.13383 33.2936L6.61877 26.3089H9.15977C9.57777 26.3089 9.9591 26.3309 10.3038 26.3749C10.6484 26.4189 10.9454 26.5069 11.1948 26.6389C11.4441 26.7709 11.6384 26.9616 11.7778 27.2109C11.9171 27.4529 11.9868 27.7792 11.9868 28.1899C11.9868 28.5712 11.9244 28.9342 11.7998 29.2789C11.6824 29.6162 11.4881 29.9132 11.2168 30.1699C10.9528 30.4192 10.6081 30.6172 10.1828 30.7639C9.75744 30.9106 9.24044 30.9839 8.63177 30.9839H8.00477L7.50977 33.2939H5.1342L37.1306 59.3466L36.9988 59.1757C13.7312 29.0199 13.6917 28.9687 37.1306 0.802942ZM9.21477 30.0049C9.0681 30.1882 8.88477 30.2799 8.66477 30.2799H8.15877L8.85177 27.0569H9.34677C9.56677 27.0569 9.70977 27.1266 9.77577 27.2659C9.84177 27.3979 9.87477 27.5629 9.87477 27.7609C9.87477 27.9736 9.85277 28.2229 9.80877 28.5089C9.76477 28.7949 9.69144 29.0699 9.58877 29.3339C9.49344 29.5979 9.36877 29.8216 9.21477 30.0049ZM19.2095 29.1689C19.4515 28.8022 19.5725 28.4026 19.5725 27.9699C19.5725 27.6179 19.5065 27.3356 19.3745 27.1229C19.2425 26.9029 19.0628 26.7342 18.8355 26.6169C18.6155 26.4922 18.3551 26.4116 18.0545 26.3749C17.7538 26.3309 17.4348 26.3089 17.0975 26.3089H14.2045L12.7195 33.2939H15.0955L15.7445 30.2469H15.8655L16.8335 33.2939H19.2865L18.0105 30.0049C18.5678 29.8142 18.9675 29.5356 19.2095 29.1689ZM16.8885 29.3559C16.7565 29.4806 16.5951 29.5429 16.4045 29.5429H15.8875L16.4375 27.0569H16.9325C17.1525 27.0569 17.2955 27.1266 17.3615 27.2659C17.4275 27.3979 17.4605 27.5592 17.4605 27.7499C17.4605 27.9039 17.4421 28.0872 17.4055 28.2999C17.3688 28.5052 17.3065 28.6996 17.2185 28.8829C17.1378 29.0662 17.0278 29.2239 16.8885 29.3559Z" fill="#886FEE"/>
</svg>
