<svg width="38" height="60" viewBox="0 0 38 60" fill="none" xmlns="http://www.w3.org/2000/svg">
<path fill-rule="evenodd" clip-rule="evenodd" d="M0.581314 0.802946L37.4727 29.3082L0.581314 59.3466L0.713129 59.1757C23.9807 29.0199 24.0202 28.9687 0.581314 0.802946ZM24.226 26.3089L22.543 28.5089L21.608 26.3089H18.891L20.508 30.1149L17.912 33.2939H19.232L20.926 31.1049L21.861 33.2939H24.578L22.939 29.4439L25.546 26.3089H24.226ZM31.4812 27.1449H33.2522L33.4392 26.3089H27.5542L27.3562 27.1449H29.1052L27.7962 33.2939H30.1722L31.4812 27.1449Z" fill="#886FEE"/>
<path d="M7.79885 33.2939H5.22485L4.00385 28.2449L2.92585 33.2939H1.93585L3.42085 26.3089H6.04985L7.20485 31.4239L8.29385 26.3089H9.30585L7.79885 33.2939ZM12.15 26.3089H16.781L16.605 27.1449H14.361L13.899 29.2679H15.78L15.604 30.0929H13.723L13.217 32.4469H15.461L15.296 33.2939H10.665L12.15 26.3089Z" fill="#886FEE"/>
</svg>
