<svg width="168" height="179" viewBox="0 0 168 179" fill="none" xmlns="http://www.w3.org/2000/svg">
    <g id="Barn">
        <path id="Back_wall" fill-rule="evenodd" clip-rule="evenodd" d="M134.903 66.395H33.901v86.334h21.374v-47.777h59.931v47.777h19.697V66.395z" fill="#2F0606"/>
        <path id="Front_face_wall" fill-rule="evenodd" clip-rule="evenodd" d="M153.164 50.787H15.641v117.55h29.102v-65.052h81.601v65.052h26.82V50.787z" fill="#781C1C"/>
        <g id="barn-trim" fill="#FFF9F9">
            <path d="M84.402 0L0 48.235l1.658 2.873L84.402 3.424l82.173 47.684L168 48.64 84.402 0zM15.64 164.913h29.103v3.424H15.641v-3.424zM129.073 164.722h24.176v3.688h-24.176v-3.688z"/>
            <path d="M15.64 164.913V50.786h3.424v114.127h-3.423zM149.971 164.942V50.81h3.278v114.132h-3.278zM40.178 99.29h90.16v3.424h-90.16V99.29z"/>
            <path d="M129.197 102.714v65.623h-3.424v-65.623h3.424zM44.743 102.714v65.623h-3.424v-65.623h3.424z"/>
        </g>
        <g id="Barn_roof">
            <path id="Polygon 12" d="M84.402 3.424L165.147 50.5H2.516L84.402 3.424z" fill="#781C1C"/>
        </g>
        <g id="barn-door-L-open">
            <path id="Rectangle 63" d="M25.817 108.232l17.785-4.947v64.278l-17.785 10.475v-69.806z" fill="#7D5632"/>
            <g id="Vector 22" fill="#FFF9F9">
                <path d="M25.817 108.135l-1.078-.57-.539 69.902 1.617.571v-69.903zM42.793 102.714l-18.054 4.851 1.078.57 17.785-4.85-.809-.571z"/>
            </g>
            <path id="Rectangle 68" d="M25.817 108.136l2.156-.571v69.194l-2.156 1.279v-69.902z" fill="#553A21"/>
            <path id="Rectangle 69" d="M41.446 103.817l2.156-.532v64.295l-2.156 1.328v-65.091z" fill="#553A21"/>
            <path id="Vector 23" d="M27.973 107.565v2.282l13.473-3.709v-2.283l-13.473 3.71z" fill="#553A21"/>
            <path id="Vector 25" d="M27.973 142.659v2.282l13.473-4.85v-2.568l-13.473 5.136z" fill="#553A21"/>
            <path id="Vector 24" d="M27.973 174.044l13.473-7.133v1.997l-13.473 7.703v-2.567z" fill="#553A21"/>
            <g id="Vector 26" fill="#553A21">
                <path d="M41.446 135.526L29.59 109.562l-1.617.285v2.854l12.126 25.393 1.347-.571v-1.997zM41.446 140.091l-1.347.571-12.126 31.67v1.712l1.617-.856 11.856-31.385v-1.712z"/>
            </g>
            <g id="door_hinge">
                <path id="Rectangle 70" d="M43.434 113.298a.205.205 0 01.41 0v5.326a.204.204 0 11-.41 0v-5.326z" fill="#0E0C0C"/>
                <path id="Rectangle 71" d="M42.615 113.912h.82v4.098h-.82v-4.098z" fill="#121010"/>
                <path id="Rectangle 72" d="M43.844 113.912h.82v4.098h-.82v-4.098z" fill="#121010"/>
            </g>
            <g id="door_hinge_2">
                <path id="Rectangle 70_2" d="M43.434 154.273a.205.205 0 01.41 0v5.327a.205.205 0 01-.41 0v-5.327z" fill="#0E0C0C"/>
                <path id="Rectangle 71_2" d="M42.615 154.888h.82v4.097h-.82v-4.097z" fill="#121010"/>
                <path id="Rectangle 72_2" d="M43.844 154.888h.82v4.097h-.82v-4.097z" fill="#121010"/>
            </g>
        </g>
        <g id="barn-door-R-open">
            <path id="Rectangle 63_2" d="M142.051 108.232l-14.993-4.947v64.278l14.993 10.475v-69.806z" fill="#7D5632"/>
            <g id="Vector 22_2" fill="#FFF9F9">
                <path d="M142.052 108.135l.908-.57.455 69.902-1.363.571v-69.903z"/>
                <path d="M127.74 102.714l15.22 4.851-.908.57-14.994-4.85.682-.571z"/>
            </g>
            <path id="Rectangle 68_2" d="M142.051 108.136l-1.817-.571v69.194l1.817 1.279v-69.902z" fill="#553A21"/>
            <path id="Rectangle 69_2" d="M128.875 103.817l-1.817-.532v64.295l1.817 1.328v-65.091z" fill="#553A21"/>
            <path id="Vector 23_2" d="M140.234 107.565v2.282l-11.359-3.709v-2.283l11.359 3.71z" fill="#553A21"/>
            <path id="Vector 25_2" d="M140.234 142.659v2.282l-11.359-4.85v-2.568l11.359 5.136z" fill="#553A21"/>
            <path id="Vector 24_2" d="M140.234 174.044l-11.359-7.133v1.997l11.359 7.703v-2.567z" fill="#553A21"/>
            <g id="Vector 26_2" fill="#553A21">
                <path d="M128.875 135.526l9.996-25.964 1.363.285v2.854l-10.223 25.393-1.136-.571v-1.997zM128.875 140.091l1.136.571 10.223 31.67v1.712l-1.363-.856-9.996-31.385v-1.712z"/>
            </g>
            <g id="door_hinge_3">
                <path id="Rectangle 70_3" d="M127.297 154.205c0-.075.062-.137.137-.137.075 0 .137.062.137.137v5.463a.137.137 0 01-.274 0v-5.463z" fill="#0E0C0C"/>
                <path id="Rectangle 71_3" d="M126.751 154.888h.546v4.097h-.546v-4.097z" fill="#121010"/>
                <path id="Rectangle 72_3" d="M127.57 154.888h.547v4.097h-.547v-4.097z" fill="#121010"/>
            </g>
            <g id="door_hinge_4">
                <path id="Rectangle 70_4" d="M126.751 114.049a.137.137 0 01.274 0v5.463a.137.137 0 01-.274 0v-5.463z" fill="#0E0C0C"/>
                <path id="Rectangle 71_4" d="M126.205 114.731h.546v4.098h-.546v-4.098z" fill="#121010"/>
                <path id="Rectangle 72_4" d="M127.024 114.731h.547v4.098h-.547v-4.098z" fill="#121010"/>
            </g>
        </g>
        <g id="flock-dtl">
            <g id="sheep-dtl">
                <g id="leg-dlt">
                    <g id="leg-dtl" fill="#2F1B0A">
                        <path id="Vector 9" d="M89.477 156.951h2.338c.219.874.219 1.748-.218 2.185h-2.12c-.291-.561-.255-1.927 0-2.185z"/>
                        <path id="Vector 10" d="M89.477 156.951h2.338c.219.874.219 1.748-.218 2.185h-2.12c-.291-.561-.255-1.927 0-2.185z"/>
                    </g>
                    <g id="leg-dtl_2">
                        <path id="Union" d="M89.393 144.718h2.403l-.437 5.243h-.008a.869.869 0 01-.1 1.014l.108 4.119.437 1.966h-2.403l.437-1.966.108-4.119a.87.87 0 01-.1-1.014h-.008l-.437-5.243z" fill="#FED8AC"/>
                    </g>
                </g>
                <g id="leg-dlt_2">
                    <g id="leg-dtl_3" fill="#2F1B0A">
                        <path id="Vector 9_2" d="M96.03 156.951h2.339c.218.874.218 1.748-.219 2.185h-2.12c-.291-.561-.255-1.927 0-2.185z"/>
                        <path id="Vector 10_2" d="M96.03 156.951h2.339c.218.874.218 1.748-.219 2.185h-2.12c-.291-.561-.255-1.927 0-2.185z"/>
                    </g>
                    <g id="leg-dtl_4">
                        <path id="Union_2" d="M95.946 144.718h2.403l-.437 5.243h-.007a.869.869 0 01-.101 1.014l.108 4.119.437 1.966h-2.403l.437-1.966.109-4.119a.87.87 0 01-.101-1.014h-.008l-.437-5.243z" fill="#FED8AC"/>
                    </g>
                </g>
                <path id="Union_3" d="M99.32 122.874c-.209 0-.412.024-.606.07a2.616 2.616 0 00-2.015-.944c-.57 0-1.099.182-1.53.492a2.607 2.607 0 00-1.528-.492c-.632 0-1.212.223-1.664.596l-.04.006a2.62 2.62 0 00-3.116 1.026c-.081.041-.163.083-.244.126a2.622 2.622 0 00-2.688 1.853 2.624 2.624 0 00-1.842 2.203l-.012.017a2.622 2.622 0 00-1.752 2.387 2.62 2.62 0 00-1.139 3.211 2.611 2.611 0 00-.61 1.682c0 .57.182 1.099.492 1.529-.31.43-.492.958-.492 1.529 0 .81.367 1.534.944 2.015a2.616 2.616 0 00.874 2.621 2.62 2.62 0 001.681 3.08 2.621 2.621 0 002.324 2.753 2.622 2.622 0 003.084 1.694 2.616 2.616 0 003.326.593 2.619 2.619 0 003.465-.776c.15-.033.3-.069.45-.108a2.622 2.622 0 003.802-1.391c.019.002.04.002.06.003l.087.001c.825 0 1.561-.381 2.041-.977a2.624 2.624 0 001.875-2.224 2.623 2.623 0 001.59-3.418c.381-.455.61-1.041.61-1.681 0-.332-.061-.649-.173-.94.381-.455.61-1.042.61-1.682 0-.64-.229-1.226-.61-1.681a2.62 2.62 0 00.173-.94c0-.64-.229-1.227-.61-1.682.112-.292.173-.608.173-.94 0-.64-.229-1.226-.61-1.681a2.618 2.618 0 00-1.139-3.211 2.621 2.621 0 00-2.62-2.535h-.036a2.622 2.622 0 00-2.585-2.184z" fill="#F8EFEF"/>
                <g id="lower-jaw">
                    <path id="Vector 6" d="M92.446 135.543c-.873 3.932 3.495 4.151 2.622 0h-2.622z" fill="#E6C49D"/>
                    <path id="Subtract" d="M93.239 137.911c0-.069-.078-.125-.174-.125-.096 0-.174.056-.174.125v.103c0 .032.038.141.038.141.31.165.39.228.828.228.655 0 .64-.16.873-.218v-.254c0-.069-.077-.125-.173-.125-.096 0-.174.056-.174.125 0-.069-.078-.125-.174-.125-.096 0-.174.056-.174.125 0-.069-.078-.125-.174-.125-.096 0-.174.056-.174.125 0-.069-.078-.125-.174-.125-.096 0-.174.056-.174.125z" fill="snow"/>
                </g>
                <path id="Vector 3" d="M101.068 130.769c-6.64-10.485-12.379-4.15-14.418.219.219.874 2.84-1.343 3.714-3.09-.437 3.464.882 7.088 1.53 8.769 1.091 2.84 3.066 2.381 3.931 0 .874-2.403 1.748-5.929 1.31-8.769 1.093 2.403 3.496 3.527 3.933 2.871z" fill="#FED8AC"/>
                <g id="sheep-eye">
                    <ellipse id="iris" rx=".723" ry=".621" transform="matrix(-.9158 -.40163 -.34116 .94 91.144 128.679)" fill="#924A08"/>
                    <ellipse id="pupil" rx=".397" ry=".468" transform="matrix(-.9158 -.40163 -.34116 .94 91.11 128.662)" fill="#0A0909"/>
                    <path id="Ellipse 2" d="M91.954 128.868a.832.832 0 00-1.62-.378l.81.189.81.189z" fill="#FFE6C9"/>
                </g>
                <g id="sheep-eye_2">
                    <ellipse id="iris_2" rx=".723" ry=".621" transform="matrix(.9158 -.40163 .34116 .94 96.388 128.679)" fill="#924A08"/>
                    <ellipse id="pupil_2" rx=".397" ry=".468" transform="matrix(.9158 -.40163 .34116 .94 96.422 128.662)" fill="#0A0909"/>
                    <path id="Ellipse 2_2" d="M95.578 128.868a.832.832 0 111.62-.378l-.81.189-.81.189z" fill="#FFE6C9"/>
                </g>
                <path id="Vector 5" d="M95.061 136.903l.109-.486c-.968-.876-2.403-.436-2.622 0l.219.486c.403.174.874.046.874.046.201.438 0 1.216-1.093.779.605.877 2.403.655 2.622 0-1.093.437-1.093-.437-1.093-.779.437.124.984-.046.984-.046z" fill="#0C0B0B"/>
                <g id="leg-dlt_3">
                    <g id="leg-dtl_5" fill="#2F1B0A">
                        <path id="Vector 9_3" d="M88.166 158.699h2.338c.219.874.219 1.747-.218 2.184h-2.12c-.292-.561-.255-1.927 0-2.184z"/>
                        <path id="Vector 10_3" d="M88.166 158.699h2.338c.219.874.219 1.747-.218 2.184h-2.12c-.292-.561-.255-1.927 0-2.184z"/>
                    </g>
                    <g id="leg-dtl_6">
                        <path id="Union_4" d="M88.082 146.466h2.403l-.437 5.243h-.008a.867.867 0 01-.1 1.013l.108 4.12.437 1.966h-2.403l.437-1.966.108-4.12a.867.867 0 01-.1-1.013h-.008l-.437-5.243z" fill="#FED8AC"/>
                    </g>
                </g>
                <g id="leg-dlt_4">
                    <g id="leg-dtl_7" fill="#2F1B0A">
                        <path id="Vector 9_4" d="M97.34 158.699h2.339c.218.874.218 1.747-.219 2.184h-2.12c-.291-.561-.254-1.927 0-2.184z"/>
                        <path id="Vector 10_4" d="M97.34 158.699h2.339c.218.874.218 1.747-.219 2.184h-2.12c-.291-.561-.254-1.927 0-2.184z"/>
                    </g>
                    <g id="leg-dtl_8">
                        <path id="Union_5" d="M97.256 146.466h2.403l-.437 5.243h-.007a.867.867 0 01-.1 1.013l.107 4.12.437 1.966h-2.403l.437-1.966.109-4.12a.867.867 0 01-.101-1.013h-.008l-.437-5.243z" fill="#FED8AC"/>
                    </g>
                </g>
            </g>
            <g id="sheep-dtl_2">
                <g id="leg-dlt_5">
                    <g id="leg-dtl_9" fill="#2F1B0A">
                        <path id="Vector 9_5" d="M68.944 160.446h2.338c.218.874.218 1.748-.219 2.185h-2.12c-.291-.561-.254-1.927 0-2.185z"/>
                        <path id="Vector 10_5" d="M68.944 160.446h2.338c.218.874.218 1.748-.219 2.185h-2.12c-.291-.561-.254-1.927 0-2.185z"/>
                    </g>
                    <g id="leg-dtl_10">
                        <path id="Union_6" d="M68.86 148.213h2.402l-.437 5.243h-.007a.871.871 0 01-.101 1.014l.108 4.12.437 1.966H68.86l.437-1.966.109-4.12a.87.87 0 01-.101-1.014h-.008l-.437-5.243z" fill="#FED8AC"/>
                    </g>
                </g>
                <g id="leg-dlt_6">
                    <g id="leg-dtl_11" fill="#2F1B0A">
                        <path id="Vector 9_6" d="M75.497 160.446h2.338c.218.874.218 1.748-.218 2.185h-2.12c-.292-.561-.255-1.927 0-2.185z"/>
                        <path id="Vector 10_6" d="M75.497 160.446h2.338c.218.874.218 1.748-.218 2.185h-2.12c-.292-.561-.255-1.927 0-2.185z"/>
                    </g>
                    <g id="leg-dtl_12">
                        <path id="Union_7" d="M75.413 148.213h2.403l-.437 5.243h-.008a.872.872 0 01-.1 1.014l.108 4.12.436 1.966h-2.402l.437-1.966.108-4.12a.87.87 0 01-.1-1.014h-.008l-.437-5.243z" fill="#FED8AC"/>
                    </g>
                </g>
                <path id="Union_8" d="M78.786 126.369c-.208 0-.412.024-.606.07a2.616 2.616 0 00-2.015-.944c-.57 0-1.099.182-1.53.492a2.607 2.607 0 00-1.528-.492c-.632 0-1.211.224-1.664.596l-.04.006a2.62 2.62 0 00-3.116 1.026c-.081.041-.163.083-.244.126a2.622 2.622 0 00-2.688 1.854 2.623 2.623 0 00-1.842 2.202l-.012.017a2.622 2.622 0 00-1.752 2.387 2.621 2.621 0 00-1.139 3.211 2.612 2.612 0 00-.61 1.682c0 .571.182 1.099.492 1.529A2.61 2.61 0 0060 141.66c0 .81.367 1.534.944 2.015a2.616 2.616 0 00.874 2.621 2.623 2.623 0 001.681 3.081 2.621 2.621 0 002.324 2.752 2.622 2.622 0 003.085 1.694 2.616 2.616 0 003.325.593 2.619 2.619 0 003.465-.776c.15-.033.3-.069.45-.108a2.622 2.622 0 003.802-1.39l.06.002.087.002c.825 0 1.561-.382 2.042-.977a2.625 2.625 0 001.874-2.225 2.623 2.623 0 001.59-3.418c.381-.455.61-1.041.61-1.681 0-.332-.06-.648-.173-.94.381-.455.61-1.042.61-1.682 0-.64-.229-1.226-.61-1.681a2.612 2.612 0 00-.437-2.622 2.612 2.612 0 00-.437-2.621 2.62 2.62 0 00-1.139-3.211 2.622 2.622 0 00-2.655-2.534 2.622 2.622 0 00-2.586-2.185z" fill="#F8EFEF"/>
                <g id="lower-jaw_2">
                    <path id="Vector 6_2" d="M71.913 139.039c-.874 3.932 3.495 4.15 2.62 0h-2.62z" fill="#E6C49D"/>
                    <path id="Subtract_2" d="M72.705 141.406c0-.069-.078-.125-.174-.125-.096 0-.174.056-.174.125v.103c0 .033.038.141.038.141.31.165.391.229.828.229.655 0 .641-.16.874-.219v-.254c0-.069-.078-.125-.174-.125-.096 0-.174.056-.174.125 0-.069-.078-.125-.174-.125-.096 0-.174.056-.174.125 0-.069-.078-.125-.174-.125-.096 0-.174.056-.174.125 0-.069-.078-.125-.174-.125-.096 0-.174.056-.174.125z" fill="snow"/>
                </g>
                <path id="Vector 3_2" d="M80.534 134.264c-6.64-10.485-12.379-4.15-14.417.219.218.874 2.84-1.342 3.713-3.09-.437 3.464.883 7.088 1.53 8.769 1.092 2.84 3.066 2.381 3.931 0 .874-2.402 1.748-5.929 1.311-8.769 1.092 2.403 3.495 3.527 3.932 2.871z" fill="#FED8AC"/>
                <g id="sheep-eye_3">
                    <ellipse id="iris_3" rx=".723" ry=".621" transform="matrix(-.9158 -.40163 -.34116 .94 70.61 132.174)" fill="#924A08"/>
                    <ellipse id="pupil_3" rx=".397" ry=".468" transform="matrix(-.9158 -.40163 -.34116 .94 70.577 132.157)" fill="#0A0909"/>
                    <path id="Ellipse 2_3" d="M71.421 132.364a.834.834 0 00-.62-1 .83.83 0 00-1 .621l.81.189.81.19z" fill="#FFE6C9"/>
                </g>
                <g id="sheep-eye_4">
                    <ellipse id="iris_4" rx=".723" ry=".621" transform="matrix(.9158 -.40163 .34116 .94 75.854 132.174)" fill="#924A08"/>
                    <ellipse id="pupil_4" rx=".397" ry=".468" transform="matrix(.9158 -.40163 .34116 .94 75.888 132.157)" fill="#0A0909"/>
                    <path id="Ellipse 2_4" d="M75.044 132.364a.834.834 0 01.62-1 .83.83 0 011 .621l-.81.189-.81.19z" fill="#FFE6C9"/>
                </g>
                <path id="Vector 5_2" d="M74.528 140.398l.108-.485c-.968-.877-2.403-.437-2.621 0l.218.485c.403.174.874.046.874.046.201.438 0 1.216-1.092.779.605.877 2.403.656 2.621 0-1.092.437-1.092-.437-1.092-.779.437.124.984-.046.984-.046z" fill="#0C0B0B"/>
                <g id="leg-dlt_7">
                    <g id="leg-dtl_13" fill="#2F1B0A">
                        <path id="Vector 9_7" d="M67.632 162.194h2.339c.218.874.218 1.747-.219 2.184h-2.12c-.291-.561-.254-1.927 0-2.184z"/>
                        <path id="Vector 10_7" d="M67.632 162.194h2.339c.218.874.218 1.747-.219 2.184h-2.12c-.291-.561-.254-1.927 0-2.184z"/>
                    </g>
                    <g id="leg-dtl_14">
                        <path id="Union_9" d="M67.548 149.961h2.403l-.437 5.243h-.007a.87.87 0 01-.1 1.014l.107 4.119.437 1.966h-2.403l.437-1.966.109-4.119a.871.871 0 01-.101-1.014h-.008l-.437-5.243z" fill="#FED8AC"/>
                    </g>
                </g>
                <g id="leg-dlt_8">
                    <g id="leg-dtl_15" fill="#2F1B0A">
                        <path id="Vector 9_8" d="M76.807 162.194h2.338c.219.874.219 1.747-.218 2.184h-2.12c-.292-.561-.255-1.927 0-2.184z"/>
                        <path id="Vector 10_8" d="M76.807 162.194h2.338c.219.874.219 1.747-.218 2.184h-2.12c-.292-.561-.255-1.927 0-2.184z"/>
                    </g>
                    <g id="leg-dtl_16">
                        <path id="Union_10" d="M76.723 149.961h2.403l-.437 5.243h-.008a.871.871 0 01-.1 1.014l.108 4.119.437 1.966h-2.403l.436-1.966.109-4.119a.87.87 0 01-.1-1.014h-.009l-.436-5.243z" fill="#FED8AC"/>
                    </g>
                </g>
            </g>
            <g id="sheep-dtl_3">
                <g id="leg-dlt_9">
                    <g id="leg-dtl_17" fill="#2F1B0A">
                        <path id="Vector 9_9" d="M82.05 163.068h2.338c.219.874.219 1.747-.218 2.184h-2.12c-.292-.561-.255-1.927 0-2.184z"/>
                        <path id="Vector 10_9" d="M82.05 163.068h2.338c.219.874.219 1.747-.218 2.184h-2.12c-.292-.561-.255-1.927 0-2.184z"/>
                    </g>
                    <g id="leg-dtl_18">
                        <path id="Union_11" d="M81.966 150.835h2.403l-.437 5.243h-.008a.87.87 0 01-.1 1.014l.108 4.119.437 1.966h-2.403l.437-1.966.108-4.119a.871.871 0 01-.1-1.014h-.008l-.437-5.243z" fill="#FED8AC"/>
                    </g>
                </g>
                <g id="leg-dlt_10">
                    <g id="leg-dtl_19" fill="#2F1B0A">
                        <path id="Vector 9_10" d="M88.603 163.068h2.338c.219.874.219 1.747-.218 2.184h-2.12c-.292-.561-.255-1.927 0-2.184z"/>
                        <path id="Vector 10_10" d="M88.603 163.068h2.338c.219.874.219 1.747-.218 2.184h-2.12c-.292-.561-.255-1.927 0-2.184z"/>
                    </g>
                    <g id="leg-dtl_20">
                        <path id="Union_12" d="M88.519 150.835h2.403l-.437 5.243h-.008a.871.871 0 01-.1 1.014l.108 4.119.437 1.966h-2.403l.437-1.966.108-4.119a.871.871 0 01-.1-1.014h-.008l-.437-5.243z" fill="#FED8AC"/>
                    </g>
                </g>
                <path id="Union_13" d="M91.893 128.99c-.209 0-.412.025-.607.071a2.616 2.616 0 00-2.014-.944c-.571 0-1.1.182-1.53.492a2.607 2.607 0 00-1.529-.492 2.61 2.61 0 00-1.663.595.544.544 0 01-.04.007 2.62 2.62 0 00-3.116 1.026c-.082.041-.163.082-.245.125a2.623 2.623 0 00-2.688 1.854 2.625 2.625 0 00-1.842 2.203l-.011.016a2.623 2.623 0 00-1.753 2.388 2.62 2.62 0 00-1.138 3.211 2.609 2.609 0 00-.61 1.681c0 .571.182 1.099.491 1.53-.31.43-.492.958-.492 1.529 0 .81.368 1.534.945 2.015a2.617 2.617 0 00.874 2.621 2.623 2.623 0 001.681 3.08 2.622 2.622 0 002.324 2.753 2.622 2.622 0 003.084 1.693 2.617 2.617 0 003.326.594 2.617 2.617 0 003.465-.777c.15-.032.3-.068.45-.107a2.623 2.623 0 003.802-1.391l.06.003.087.001c.825 0 1.56-.381 2.041-.977a2.623 2.623 0 001.874-2.225 2.622 2.622 0 001.59-3.417c.382-.455.611-1.042.611-1.682 0-.331-.061-.648-.173-.94.38-.455.61-1.041.61-1.681 0-.64-.23-1.227-.61-1.682a2.61 2.61 0 00.173-.94c0-.64-.23-1.226-.61-1.681a2.62 2.62 0 00-.437-2.621 2.62 2.62 0 00-1.139-3.212 2.622 2.622 0 00-2.62-2.534h-.036a2.622 2.622 0 00-2.585-2.185z" fill="#F8EFEF"/>
                <g id="lower-jaw_3">
                    <path id="Vector 6_3" d="M85.019 141.66c-.874 3.932 3.495 4.151 2.621 0H85.02z" fill="#E6C49D"/>
                    <path id="Subtract_3" d="M85.812 144.027c0-.068-.078-.124-.174-.124-.096 0-.174.056-.174.124v.104c0 .032.038.141.038.141.31.164.39.228.827.228.656 0 .642-.16.874-.218v-.255c0-.068-.078-.124-.174-.124-.096 0-.174.056-.174.124 0-.068-.078-.124-.174-.124-.096 0-.174.056-.174.124 0-.068-.077-.124-.174-.124-.096 0-.173.056-.173.124 0-.068-.078-.124-.174-.124-.096 0-.174.056-.174.124z" fill="snow"/>
                </g>
                <path id="Vector 3_3" d="M93.64 136.886c-6.64-10.485-12.378-4.151-14.417.218.219.874 2.84-1.342 3.714-3.089-.437 3.463.882 7.088 1.529 8.769 1.092 2.84 3.066 2.38 3.932 0 .874-2.403 1.748-5.93 1.31-8.769 1.093 2.403 3.496 3.526 3.933 2.871z" fill="#FED8AC"/>
                <g id="sheep-eye_5">
                    <ellipse id="iris_5" rx=".723" ry=".621" transform="matrix(-.9158 -.40163 -.34116 .94 83.717 134.796)" fill="#924A08"/>
                    <ellipse id="pupil_5" rx=".397" ry=".468" transform="matrix(-.9158 -.40163 -.34116 .94 83.683 134.778)" fill="#0A0909"/>
                    <path id="Ellipse 2_5" d="M84.528 134.985a.83.83 0 10-1.62-.379l.81.19.81.189z" fill="#FFE6C9"/>
                </g>
                <g id="sheep-eye_6">
                    <ellipse id="iris_6" rx=".723" ry=".621" transform="matrix(.9158 -.40163 .34116 .94 88.96 134.796)" fill="#924A08"/>
                    <ellipse id="pupil_6" rx=".397" ry=".468" transform="matrix(.9158 -.40163 .34116 .94 88.995 134.778)" fill="#0A0909"/>
                    <path id="Ellipse 2_6" d="M88.15 134.985a.83.83 0 111.62-.379l-.81.19-.81.189z" fill="#FFE6C9"/>
                </g>
                <path id="Vector 5_3" d="M87.634 143.02l.109-.486c-.968-.877-2.403-.437-2.622 0l.219.486c.403.173.873.046.873.046.202.438 0 1.216-1.092.779.605.877 2.403.655 2.622 0-1.093.437-1.093-.437-1.093-.779.437.123.984-.046.984-.046z" fill="#0C0B0B"/>
                <g id="leg-dlt_11">
                    <g id="leg-dtl_21" fill="#2F1B0A">
                        <path id="Vector 9_11" d="M80.739 164.815h2.338c.219.874.219 1.748-.218 2.185h-2.12c-.292-.561-.255-1.927 0-2.185z"/>
                        <path id="Vector 10_11" d="M80.739 164.815h2.338c.219.874.219 1.748-.218 2.185h-2.12c-.292-.561-.255-1.927 0-2.185z"/>
                    </g>
                    <g id="leg-dtl_22">
                        <path id="Union_14" d="M80.655 152.583h2.403l-.437 5.242h-.008a.871.871 0 01-.1 1.014l.108 4.12.437 1.966h-2.403l.437-1.966.108-4.12a.87.87 0 01-.1-1.014h-.008l-.437-5.242z" fill="#FED8AC"/>
                    </g>
                </g>
                <g id="leg-dlt_12">
                    <g id="leg-dtl_23" fill="#2F1B0A">
                        <path id="Vector 9_12" d="M89.913 164.815h2.338c.219.874.219 1.748-.218 2.185h-2.12c-.291-.561-.255-1.927 0-2.185z"/>
                        <path id="Vector 10_12" d="M89.913 164.815h2.338c.219.874.219 1.748-.218 2.185h-2.12c-.291-.561-.255-1.927 0-2.185z"/>
                    </g>
                    <g id="leg-dtl_24">
                        <path id="Union_15" d="M89.83 152.583h2.402l-.437 5.242h-.008a.872.872 0 01-.1 1.014l.108 4.12.437 1.966h-2.403l.437-1.966.108-4.12a.87.87 0 01-.1-1.014h-.008l-.437-5.242z" fill="#FED8AC"/>
                    </g>
                </g>
            </g>
        </g>
        <g id="barn-door-L-close" display="none">
            <g id="door_hinge_5">
                <path id="Rectangle 70_5" d="M44.423 113.404a.404.404 0 00-.808 0v4.929a.404.404 0 10.808 0v-4.929z" fill="#0E0C0C"/>
                <path id="Rectangle 71_5" d="M46.039 113.819h-1.616v4.098h1.616v-4.098z" fill="#121010"/>
                <path id="Rectangle 72_5" d="M43.616 113.819H42v4.098h1.616v-4.098z" fill="#121010"/>
            </g>
            <g id="door_hinge_6">
                <path id="Rectangle 70_6" d="M44.423 154.404a.404.404 0 00-.808 0v4.929a.404.404 0 10.808 0v-4.929z" fill="#0E0C0C"/>
                <path id="Rectangle 71_6" d="M46.039 154.819h-1.616v4.098h1.616v-4.098z" fill="#121010"/>
                <path id="Rectangle 72_6" d="M43.616 154.819H42v4.098h1.616v-4.098z" fill="#121010"/>
            </g>
            <path id="Rectangle 110" fill="#7D5632" d="M44 102h41.5v66H44z"/>
            <path id="Rectangle 111" fill="#553A21" d="M44 102h4v66h-4z"/>
            <path id="Rectangle 113" fill="#553A21" d="M82 102h4v66h-4z"/>
            <path id="Rectangle 112" d="M47 102h36v4H47v-4z" fill="#553A21"/>
            <path id="Rectangle 114" d="M47 164h36v4H47v-4z" fill="#553A21"/>
            <path id="Rectangle 115" d="M81.941 108.121L82 106h-2.18L48 132.5v4l33.941-28.379z" fill="#553A21"/>
            <path id="Rectangle 116" d="M82.004 161.379l.058 2.121h-2.18L48 136.5v-4l34.004 28.879z" fill="#553A21"/>
            <path id="Rectangle 117" d="M52 133h30v3H52l-2-1.5 2-1.5z" fill="#553A21"/>
        </g>
        <g id="barn-door-R-close" display="none">
            <g id="door_hinge_7">
                <path id="Rectangle 70_7" d="M127.577 112.404a.403.403 0 11.807 0v4.929a.404.404 0 11-.807 0v-4.929z" fill="#0E0C0C"/>
                <path id="Rectangle 71_7" d="M125.961 112.819h1.616v4.098h-1.616v-4.098z" fill="#121010"/>
                <path id="Rectangle 72_7" d="M128.384 112.819H130v4.098h-1.616v-4.098z" fill="#121010"/>
            </g>
            <g id="door_hinge_8">
                <path id="Rectangle 70_8" d="M127.615 153.404a.404.404 0 01.808 0v4.929a.404.404 0 01-.808 0v-4.929z" fill="#0E0C0C"/>
                <path id="Rectangle 71_8" d="M126 153.819h1.615v4.098H126v-4.098z" fill="#121010"/>
                <path id="Rectangle 72_8" d="M128.423 153.819h1.615v4.098h-1.615v-4.098z" fill="#121010"/>
            </g>
            <path id="Rectangle 110_2" transform="matrix(-1 0 0 1 128 102)" fill="#7D5632" d="M0 0h41.5v66H0z"/>
            <path id="Rectangle 111_2" transform="matrix(-1 0 0 1 128 102)" fill="#553A21" d="M0 0h4v66H0z"/>
            <path id="Rectangle 113_2" transform="matrix(-1 0 0 1 90 102)" fill="#553A21" d="M0 0h4v66H0z"/>
            <path id="Rectangle 112_2" d="M125 102H89v4h36v-4z" fill="#553A21"/>
            <path id="Rectangle 114_2" d="M125 164H89v4h36v-4z" fill="#553A21"/>
            <path id="Rectangle 115_2" d="M90.059 108.121L90 106h2.18L124 132.5v4l-33.941-28.379z" fill="#553A21"/>
            <path id="Rectangle 116_2" d="M89.996 161.379l-.058 2.121h2.18l31.882-27v-4l-34.004 28.879z" fill="#553A21"/>
            <path id="Rectangle 117_2" d="M120 133H90v3h30l2-1.5-2-1.5z" fill="#553A21"/>
        </g>
    </g>
</svg>
