<svg viewBox="0 0 168 179" vfill="none" xmlns="http://www.w3.org/2000/svg">
    <g id="barn">
        <path id="Back_wall" fill-rule="evenodd" clip-rule="evenodd" d="M134.903 66.395H33.901v86.334h21.374v-47.777h59.931v47.777h19.697V66.395z" fill="#2F0606"/>
        <path id="Front_face_wall" fill-rule="evenodd" clip-rule="evenodd" d="M153.164 50.786H15.641v117.551h29.102v-65.052h81.601v65.052h26.82V50.787z" fill="#781C1C"/>
        <g id="barn-trim" fill="#FFF9F9">
            <path d="M84.402 0L0 48.235l1.658 2.873L84.402 3.424l82.173 47.684L168 48.64 84.402 0zM15.64 164.913h29.103v3.424H15.641v-3.424zM129.073 164.722h24.176v3.688h-24.176v-3.688z"/>
            <path d="M15.64 164.913V50.786h3.424v114.127h-3.423zM149.971 164.942V50.81h3.278v114.132h-3.278zM40.178 99.29h90.16v3.424h-90.16V99.29z"/>
            <path d="M129.197 102.714v65.623h-3.424v-65.623h3.424zM44.743 102.714v65.623h-3.424v-65.623h3.424z"/>
        </g>
        <g id="barn_roof">
            <path d="M84.402 3.424L165.147 50.5H2.516L84.402 3.424z" fill="#781C1C"/>
        </g>
        <g id="barn-door-L-open" display="none">
            <path d="M25.817 108.232l17.785-4.947v64.277l-17.785 10.476v-69.806z" fill="#7D5632"/>
            <g fill="#FFF9F9">
                <path d="M25.817 108.135l-1.078-.57-.539 69.902 1.617.571v-69.903zM42.793 102.714l-18.054 4.851 1.078.57 17.785-4.85-.809-.571z"/>
            </g>
            <path d="M25.817 108.135l2.156-.57v69.194l-2.156 1.279v-69.903z" fill="#553A21"/>
            <path d="M41.446 103.816l2.156-.531v64.294l-2.156 1.329v-65.092z" fill="#553A21"/>
            <path d="M27.973 107.565v2.282l13.473-3.709v-2.282l-13.473 3.709z" fill="#553A21"/>
            <path d="M27.973 142.659v2.282l13.473-4.85v-2.568l-13.473 5.136z" fill="#553A21"/>
            <path d="M27.973 174.044l13.473-7.133v1.997l-13.473 7.703v-2.567z" fill="#553A21"/>
            <g fill="#553A21">
                <path d="M41.446 135.526l-11.857-25.964-1.616.285v2.853l12.126 25.394 1.347-.571v-1.997zM41.446 140.091l-1.347.57-12.126 31.671v1.712l1.616-.856 11.857-31.385v-1.712z"/>
            </g>
            <g>
                <path d="M43.434 113.298a.204.204 0 11.41 0v5.326a.204.204 0 11-.41 0v-5.326z" fill="#0E0C0C"/>
                <path d="M42.615 113.912h.82v4.098h-.82v-4.098z" fill="#121010"/>
                <path d="M43.844 113.912h.82v4.098h-.82v-4.098z" fill="#121010"/>
            </g>
            <g>
                <path d="M43.434 154.273a.205.205 0 01.41 0v5.327a.205.205 0 01-.41 0v-5.327z" fill="#0E0C0C"/>
                <path d="M42.615 154.888h.82v4.097h-.82v-4.097z" fill="#121010"/>
                <path d="M43.844 154.888h.82v4.097h-.82v-4.097z" fill="#121010"/>
            </g>
        </g>
        <g id="barn-door-R-open" display="none">
            <path d="M142.052 108.232l-14.994-4.947v64.277l14.994 10.476v-69.806z" fill="#7D5632"/>
            <g fill="#FFF9F9">
                <path d="M142.052 108.135l.908-.57.455 69.902-1.363.571v-69.903z"/>
                <path d="M127.74 102.714l15.22 4.851-.908.57-14.994-4.85.682-.571z"/>
            </g>
            <path d="M142.052 108.135l-1.818-.57v69.194l1.818 1.279v-69.903z" fill="#553A21"/>
            <path d="M128.875 103.816l-1.817-.531v64.294l1.817 1.329v-65.092z" fill="#553A21"/>
            <path d="M140.234 107.565v2.282l-11.359-3.709v-2.282l11.359 3.709z" fill="#553A21"/>
            <path d="M140.234 142.659v2.282l-11.359-4.85v-2.568l11.359 5.136z" fill="#553A21"/>
            <path d="M140.234 174.044l-11.359-7.133v1.997l11.359 7.703v-2.567z" fill="#553A21"/>
            <g fill="#553A21">
                <path d="M128.875 135.526l9.996-25.964 1.363.285v2.853l-10.223 25.394-1.136-.571v-1.997zM128.875 140.091l1.136.57 10.223 31.671v1.712l-1.363-.856-9.996-31.385v-1.712z"/>
            </g>
            <g>
                <path d="M127.297 154.205a.137.137 0 01.274 0v5.463a.137.137 0 01-.274 0v-5.463z" fill="#0E0C0C"/>
                <path d="M126.751 154.888h.546v4.097h-.546v-4.097z" fill="#121010"/>
                <path d="M127.571 154.888h.546v4.097h-.546v-4.097z" fill="#121010"/>
            </g>
            <g>
                <path d="M126.751 114.049a.137.137 0 11.273 0v5.463a.136.136 0 11-.273 0v-5.463z" fill="#0E0C0C"/>
                <path d="M126.205 114.732h.546v4.097h-.546v-4.097z" fill="#121010"/>
                <path d="M127.024 114.732h.547v4.097h-.547v-4.097z" fill="#121010"/>
            </g>
        </g>
        <g id="barn-door-L-close">
            <g>
                <path d="M44.423 113.404a.404.404 0 00-.808 0v4.929a.404.404 0 10.808 0v-4.929z" fill="#0E0C0C"/>
                <path d="M46.038 113.82h-1.615v4.097h1.615v-4.097z" fill="#121010"/>
                <path d="M43.615 113.82H42v4.097h1.615v-4.097z" fill="#121010"/>
            </g>
            <g>
                <path d="M44.423 154.404a.404.404 0 00-.808 0v4.929a.404.404 0 10.808 0v-4.929z" fill="#0E0C0C"/>
                <path d="M46.038 154.82h-1.615v4.097h1.615v-4.097z" fill="#121010"/>
                <path d="M43.615 154.82H42v4.097h1.615v-4.097z" fill="#121010"/>
            </g>
            <path fill="#7D5632" d="M44 102h41.5v66H44z"/>
            <path fill="#553A21" d="M44 102h4v66h-4z"/>
            <path fill="#553A21" d="M82 102h4v66h-4z"/>
            <path d="M47 102h36v4H47v-4z" fill="#553A21"/>
            <path d="M47 164h36v4H47v-4z" fill="#553A21"/>
            <path d="M81.941 108.121L82 106h-2.18L48 132.5v4l33.941-28.379z" fill="#553A21"/>
            <path d="M82.004 161.379l.058 2.121h-2.18L48 136.5v-4l34.004 28.879z" fill="#553A21"/>
            <path d="M52 133h30v3H52l-2-1.5 2-1.5z" fill="#553A21"/>
        </g>
        <g id="barn-door-R-close">
            <g>
                <path d="M127.577 112.404a.403.403 0 11.807 0v4.929a.404.404 0 01-.807 0v-4.929z" fill="#0E0C0C"/>
                <path d="M125.962 112.82h1.615v4.097h-1.615v-4.097z" fill="#121010"/>
                <path d="M128.385 112.82H130v4.097h-1.615v-4.097z" fill="#121010"/>
            </g>
            <g>
                <path d="M127.615 153.404a.404.404 0 01.808 0v4.929a.404.404 0 01-.808 0v-4.929z" fill="#0E0C0C"/>
                <path d="M126 153.82h1.615v4.097H126v-4.097z" fill="#121010"/>
                <path d="M128.423 153.82h1.615v4.097h-1.615v-4.097z" fill="#121010"/>
            </g>
            <path transform="matrix(-1 0 0 1 128 102)" fill="#7D5632" d="M0 0h41.5v66H0z"/>
            <path transform="matrix(-1 0 0 1 128 102)" fill="#553A21" d="M0 0h4v66H0z"/>
            <path transform="matrix(-1 0 0 1 90 102)" fill="#553A21" d="M0 0h4v66H0z"/>
            <path d="M125 102H89v4h36v-4z" fill="#553A21"/>
            <path d="M125 164H89v4h36v-4z" fill="#553A21"/>
            <path d="M90.059 108.121L90 106h2.18L124 132.5v4l-33.941-28.379z" fill="#553A21"/>
            <path d="M89.996 161.379l-.058 2.121h2.18l31.882-27v-4l-34.004 28.879z" fill="#553A21"/>
            <path d="M120 133H90v3h30l2-1.5-2-1.5z" fill="#553A21"/>
        </g>
    </g>
</svg>
