<svg viewBox="0 0 288 209" fill="none" xmlns="http://www.w3.org/2000/svg">
    <mask id="a" fill="#fff">
        <path d="M192.184 55.632h8.669v4.335h-8.669v-4.335zM200.853 55.632h8.67v4.335h-8.67v-4.335zM195.796 51.297h8.67v4.335h-8.67v-4.335zM204.466 51.297h8.67v4.335h-8.67v-4.335zM209.523 55.632h8.67v4.335h-8.67v-4.335zM192.184 51.297h3.612v4.335h-3.612v-4.335zM213.136 51.297h5.057v4.335h-5.057v-4.335z"/>
        <path d="M192.184 46.962h8.669v4.335h-8.669v-4.335zM192.184 38.292h8.669v4.335h-8.669v-4.335zM192.184 29.622h8.669v4.335h-8.669v-4.335zM192.184 20.952h8.669v4.335h-8.669v-4.335zM192.184 12.282h8.669v4.335h-8.669v-4.335zM200.853 46.962h8.67v4.335h-8.67v-4.335zM200.853 38.292h8.67v4.335h-8.67v-4.335zM200.853 29.622h8.67v4.335h-8.67v-4.335zM200.853 20.952h8.67v4.335h-8.67v-4.335zM200.853 12.282h8.67v4.335h-8.67v-4.335zM195.796 42.627h8.67v4.335h-8.67v-4.335zM195.796 33.957h8.67v4.335h-8.67v-4.335z"/>
        <path d="M195.796 25.287h8.67v4.335h-8.67v-4.335zM195.796 16.617h8.67v4.335h-8.67v-4.335zM195.796 7.947h8.67v4.335h-8.67V7.947zM204.466 42.627h8.67v4.335h-8.67v-4.335zM204.466 33.957h8.67v4.335h-8.67v-4.335zM204.466 25.287h8.67v4.335h-8.67v-4.335zM204.466 16.617h8.67v4.335h-8.67v-4.335zM204.466 7.947h8.67v4.335h-8.67V7.947zM190.739 3.612h6.502v4.335h-6.502V3.612zM197.241 3.612h8.67v4.335h-8.67V3.612zM205.911 3.612h8.67v4.335h-8.67V3.612zM214.581 3.612h5.057v4.335h-5.057V3.612zM209.523 46.962h8.67v4.335h-8.67v-4.335zM209.523 38.292h8.67v4.335h-8.67v-4.335zM209.523 29.622h8.67v4.335h-8.67v-4.335z"/>
        <path d="M209.523 20.952h8.67v4.335h-8.67v-4.335zM209.523 12.282h8.67v4.335h-8.67v-4.335zM192.184 42.627h3.612v4.335h-3.612v-4.335zM192.184 33.957h3.612v4.335h-3.612v-4.335zM192.184 25.287h3.612v4.335h-3.612v-4.335zM192.184 16.617h3.612v4.335h-3.612v-4.335zM192.184 7.947h3.612v4.335h-3.612V7.947zM213.136 42.627h5.057v4.335h-5.057v-4.335zM213.136 33.957h5.057v4.335h-5.057v-4.335z"/>
        <path d="M213.136 25.287h5.057v4.335h-5.057v-4.335zM213.136 16.617h5.057v4.335h-5.057v-4.335zM213.136 7.947h5.057v4.335h-5.057V7.947z"/>
    </mask>
    <path d="M192.184 55.632h8.669v4.335h-8.669v-4.335zM200.853 55.632h8.67v4.335h-8.67v-4.335zM195.796 51.297h8.67v4.335h-8.67v-4.335zM204.466 51.297h8.67v4.335h-8.67v-4.335zM209.523 55.632h8.67v4.335h-8.67v-4.335zM192.184 51.297h3.612v4.335h-3.612v-4.335zM213.136 51.297h5.057v4.335h-5.057v-4.335z" fill="#CC6C6C"/>
    <path d="M192.184 46.962h8.669v4.335h-8.669v-4.335zM192.184 38.292h8.669v4.335h-8.669v-4.335zM192.184 29.622h8.669v4.335h-8.669v-4.335zM192.184 20.952h8.669v4.335h-8.669v-4.335zM192.184 12.282h8.669v4.335h-8.669v-4.335zM200.853 46.962h8.67v4.335h-8.67v-4.335zM200.853 38.292h8.67v4.335h-8.67v-4.335zM200.853 29.622h8.67v4.335h-8.67v-4.335zM200.853 20.952h8.67v4.335h-8.67v-4.335zM200.853 12.282h8.67v4.335h-8.67v-4.335zM195.796 42.627h8.67v4.335h-8.67v-4.335zM195.796 33.957h8.67v4.335h-8.67v-4.335z" fill="#CC6C6C"/>
    <path d="M195.796 25.287h8.67v4.335h-8.67v-4.335zM195.796 16.617h8.67v4.335h-8.67v-4.335zM195.796 7.947h8.67v4.335h-8.67V7.947zM204.466 42.627h8.67v4.335h-8.67v-4.335zM204.466 33.957h8.67v4.335h-8.67v-4.335zM204.466 25.287h8.67v4.335h-8.67v-4.335zM204.466 16.617h8.67v4.335h-8.67v-4.335zM204.466 7.947h8.67v4.335h-8.67V7.947zM190.739 3.612h6.502v4.335h-6.502V3.612zM197.241 3.612h8.67v4.335h-8.67V3.612zM205.911 3.612h8.67v4.335h-8.67V3.612zM214.581 3.612h5.057v4.335h-5.057V3.612zM209.523 46.962h8.67v4.335h-8.67v-4.335zM209.523 38.292h8.67v4.335h-8.67v-4.335zM209.523 29.622h8.67v4.335h-8.67v-4.335z" fill="#CC6C6C"/>
    <path d="M209.523 20.952h8.67v4.335h-8.67v-4.335zM209.523 12.282h8.67v4.335h-8.67v-4.335zM192.184 42.627h3.612v4.335h-3.612v-4.335zM192.184 33.957h3.612v4.335h-3.612v-4.335zM192.184 25.287h3.612v4.335h-3.612v-4.335zM192.184 16.617h3.612v4.335h-3.612v-4.335zM192.184 7.947h3.612v4.335h-3.612V7.947zM213.136 42.627h5.057v4.335h-5.057v-4.335zM213.136 33.957h5.057v4.335h-5.057v-4.335z" fill="#CC6C6C"/>
    <path d="M213.136 25.287h5.057v4.335h-5.057v-4.335zM213.136 16.617h5.057v4.335h-5.057v-4.335zM213.136 7.947h5.057v4.335h-5.057V7.947z" fill="#CC6C6C"/>
    <path d="M200.353 55.632v4.335h1v-4.335h-1zm8.67 0v4.335h1v-4.335h-1zm-5.057-4.335v4.335h1v-4.335h-1zm-7.67 4.335v-4.335h-1v4.335h1zm16.34-4.335v4.335h1v-4.335h-1zm-12.283-4.335v4.335h1v-4.335h-1zm0-8.67v4.335h1v-4.335h-1zm0-8.67v4.335h1v-4.335h-1zm0-8.67v4.335h1v-4.335h-1zm0-8.67v4.335h1v-4.335h-1zm8.67 34.68v4.335h1v-4.335h-1zm0-8.67v4.335h1v-4.335h-1zm0-8.67v4.335h1v-4.335h-1zm0-8.67v4.335h1v-4.335h-1zm0-8.67v4.335h1v-4.335h-1zm-5.057 30.345v4.335h1v-4.335h-1zm-7.67 4.335v-4.335h-1v4.335h1zm7.67-13.005v4.335h1v-4.335h-1zm-7.67 4.335v-4.335h-1v4.335h1zm7.67-13.005v4.335h1v-4.335h-1zm-7.67 4.335v-4.335h-1v4.335h1zm7.67-13.005v4.335h1v-4.335h-1zm-7.67 4.335v-4.335h-1v4.335h1zm7.67-13.005v4.335h1V7.947h-1zm-7.67 4.335V7.947h-1v4.335h1zm16.34 30.345v4.335h1v-4.335h-1zm0-8.67v4.335h1v-4.335h-1zm0-8.67v4.335h1v-4.335h-1zm0-8.67v4.335h1v-4.335h-1zm0-8.67v4.335h1V7.947h-1zm-15.895-4.335v4.335h1V3.612h-1zm8.67 0v4.335h1V3.612h-1zm8.67 0v4.335h1V3.612h-1zm-21.897 56.355h-1v1h1v-1zm26.009-4.335h1-1zm0 4.335v1h1v-1h-1zm-22.397-17.34v1-1zm0 4.335v1-1zm0-13.005v-1 1zm0 4.335v-1 1zm0-13.005v-1 1zm0 4.335v1-1zm0-13.005v1-1zm0-4.335v1-1zm17.34 30.345v1-1zm0 4.335v1-1zm0-13.005v-1 1zm0 4.335v-1 1zm0-13.005v-1 1zm0 4.335v1-1zm0-13.005v1-1zm0-4.335v1-1zm-22.397-8.67v-1h-1v1h1zm6.502 0v1-1zm0 4.335v1-1zm-6.502 0h-1v1h1v-1zm15.172-4.335v-1 1zm0 4.335v-1 1zm13.727-4.335h1v-1h-1v1zm0 4.335v1h1v-1h-1zm-1.445 39.015h1-1zm0-34.68h1-1zm-26.009-4.335v-1h-1v1h1zm26.009 0h1v-1h-1v1zm-26.009 48.685h8.669v-2h-8.669v2zm8.669 2.335h-8.669v2h8.669v-2zm-7.669 1v-4.335h-2v4.335h2zm7.669-3.335h8.67v-2h-8.67v2zm8.67 2.335h-8.67v2h8.67v-2zm-13.727-6.67h8.67v-2h-8.67v2zm8.67 2.335h-8.67v2h8.67v-2zm0-2.335h8.67v-2h-8.67v2zm8.67 2.335h-8.67v2h8.67v-2zm-3.613 2h8.67v-2h-8.67v2zm7.67-1v4.335h2v-4.335h-2zm1 3.335h-8.67v2h8.67v-2zm-26.009-6.67h3.612v-2h-3.612v2zm3.612 2.335h-3.612v2h3.612v-2zm-2.612 1v-4.335h-2v4.335h2zm19.952-3.335h5.057v-2h-5.057v2zm4.057-1v4.335h2v-4.335h-2zm1 3.335h-5.057v2h5.057v-2zm-26.009-6.67h8.669v-2h-8.669v2zm8.669 2.335h-8.669v2h8.669v-2zm-7.669 1v-4.335h-2v4.335h2zm-1-12.005h8.669v-2h-8.669v2zm8.669 2.335h-8.669v2h8.669v-2zm-7.669 1v-4.335h-2v4.335h2zm-1-12.005h8.669v-2h-8.669v2zm8.669 2.335h-8.669v2h8.669v-2zm-7.669 1v-4.335h-2v4.335h2zm-1-12.005h8.669v-2h-8.669v2zm8.669 2.335h-8.669v2h8.669v-2zm-7.669 1v-4.335h-2v4.335h2zm-1-12.005h8.669v-2h-8.669v2zm8.669 2.335h-8.669v2h8.669v-2zm-7.669 1v-4.335h-2v4.335h2zm7.669 31.345h8.67v-2h-8.67v2zm8.67 2.335h-8.67v2h8.67v-2zm-8.67-11.005h8.67v-2h-8.67v2zm8.67 2.335h-8.67v2h8.67v-2zm-8.67-11.005h8.67v-2h-8.67v2zm8.67 2.335h-8.67v2h8.67v-2zm-8.67-11.005h8.67v-2h-8.67v2zm8.67 2.335h-8.67v2h8.67v-2zm-8.67-11.005h8.67v-2h-8.67v2zm8.67 2.335h-8.67v2h8.67v-2zm-13.727 28.01h8.67v-2h-8.67v2zm8.67 2.335h-8.67v2h8.67v-2zm-8.67-11.005h8.67v-2h-8.67v2zm8.67 2.335h-8.67v2h8.67v-2zm-8.67-11.005h8.67v-2h-8.67v2zm8.67 2.335h-8.67v2h8.67v-2zm-8.67-11.005h8.67v-2h-8.67v2zm8.67 2.335h-8.67v2h8.67v-2zm-8.67-11.005h8.67v-2h-8.67v2zm8.67 2.335h-8.67v2h8.67v-2zm0 32.345h8.67v-2h-8.67v2zm8.67 2.335h-8.67v2h8.67v-2zm-8.67-11.005h8.67v-2h-8.67v2zm8.67 2.335h-8.67v2h8.67v-2zm-8.67-11.005h8.67v-2h-8.67v2zm8.67 2.335h-8.67v2h8.67v-2zm-8.67-11.005h8.67v-2h-8.67v2zm8.67 2.335h-8.67v2h8.67v-2zm-8.67-11.005h8.67v-2h-8.67v2zm8.67 2.335h-8.67v2h8.67v-2zm-22.397-6.67h6.502v-2h-6.502v2zm6.502 2.335h-6.502v2h6.502v-2zm-5.502 1V3.612h-2v4.335h2zm5.502-3.335h8.67v-2h-8.67v2zm8.67 2.335h-8.67v2h8.67v-2zm0-2.335h8.67v-2h-8.67v2zm8.67 2.335h-8.67v2h8.67v-2zm0-2.335h5.057v-2h-5.057v2zm4.057-1v4.335h2V3.612h-2zm1 3.335h-5.057v2h5.057v-2zm-10.115 41.015h8.67v-2h-8.67v2zm7.67-1v4.335h2v-4.335h-2zm1 3.335h-8.67v2h8.67v-2zm-8.67-11.005h8.67v-2h-8.67v2zm7.67-1v4.335h2v-4.335h-2zm1 3.335h-8.67v2h8.67v-2zm-8.67-11.005h8.67v-2h-8.67v2zm7.67-1v4.335h2v-4.335h-2zm1 3.335h-8.67v2h8.67v-2zm-8.67-11.005h8.67v-2h-8.67v2zm7.67-1v4.335h2v-4.335h-2zm1 3.335h-8.67v2h8.67v-2zm-8.67-11.005h8.67v-2h-8.67v2zm7.67-1v4.335h2v-4.335h-2zm1 3.335h-8.67v2h8.67v-2zm-26.009 28.01h3.612v-2h-3.612v2zm3.612 2.335h-3.612v2h3.612v-2zm-2.612 1v-4.335h-2v4.335h2zm-1-12.005h3.612v-2h-3.612v2zm3.612 2.335h-3.612v2h3.612v-2zm-2.612 1v-4.335h-2v4.335h2zm-1-12.005h3.612v-2h-3.612v2zm3.612 2.335h-3.612v2h3.612v-2zm-2.612 1v-4.335h-2v4.335h2zm-1-12.005h3.612v-2h-3.612v2zm3.612 2.335h-3.612v2h3.612v-2zm-2.612 1v-4.335h-2v4.335h2zm-1-12.005h3.612v-2h-3.612v2zm3.612 2.335h-3.612v2h3.612v-2zm-2.612 1V7.947h-2v4.335h2zm19.952 31.345h5.057v-2h-5.057v2zm4.057-1v4.335h2v-4.335h-2zm1 3.335h-5.057v2h5.057v-2zm-5.057-11.005h5.057v-2h-5.057v2zm4.057-1v4.335h2v-4.335h-2zm1 3.335h-5.057v2h5.057v-2zm-5.057-11.005h5.057v-2h-5.057v2zm4.057-1v4.335h2v-4.335h-2zm1 3.335h-5.057v2h5.057v-2zm-5.057-11.005h5.057v-2h-5.057v2zm4.057-1v4.335h2v-4.335h-2zm1 3.335h-5.057v2h5.057v-2zm-5.057-11.005h5.057v-2h-5.057v2zm4.057-1v4.335h2V7.947h-2zm1 3.335h-5.057v2h5.057v-2z" fill="#9C5858" mask="url(#a)"/>
    <path fill="#F37676" d="M45.517 85.977h195.796v115.599H45.517z"/>
    <g>
        <path d="M143.776 0l124.515 89.409H19.262L143.776 0z" fill="#5F3B3B"/>
        <path fill="#494242" d="M42 77h40v9H42z"/>
        <path fill="#874343" d="M106 77h26v9h-26z"/>
        <path fill="#787272" d="M185 77h40v9h-40z"/>
        <path fill="#A66060" d="M165 63h40v9h-40z"/>
        <path fill="#787272" d="M122 67h29v9h-29zM69 62h29v9H69z"/>
        <path fill="#813919" d="M87 47h29v9H87z"/>
        <path fill="#401818" d="M126 50h29v9h-29z"/>
        <path fill="#2B2222" d="M163 48h29v9h-29z"/>
        <path fill="#787272" d="M152 33h29v9h-29z"/>
        <path fill="#885E5E" d="M130 14h28v9h-28z"/>
        <path fill="#49516B" d="M104 32h41v9h-41z"/>
    </g>
    <g>
        <path fill="#72C3FE" d="M88 111h32v46H88z"/>
        <path fill="#FFFCFC" d="M89 134v-1h31v1z"/>
        <path fill="#FFFCFC" d="M104 112h1v44h-1z"/>
        <path fill="#F9FBB8" d="M83 107h42v6H83zM80 155h48v6H80zM125 113v42h-6v-42zM89 113v42h-6v-42z"/>
    </g>
    <g>
        <path fill="#72C3FE" d="M176 111h32v46h-32z"/>
        <path fill="#FFFCFC" d="M177 134v-1h31v1z"/>
        <path fill="#FFFCFC" d="M192 112h1v44h-1z"/>
        <path fill="#F9FBB8" d="M171 107h42v6h-42zM168 155h48v6h-48zM213 113v42h-6v-42zM177 113v42h-6v-42z"/>
    </g>
    <g>
        <path d="M61.556 196c0 4.563-1.63 9.235-3.556 11h8c-2.222-6.519-2.222-9.778-.889-11-1.185.136-3.555.326-3.555 0z" fill="#5F2705"/>
        <path d="M52.282 184.562v-.036c0-4.709 4.219-8.526 9.423-8.526 2.894 0 5.483 1.18 7.211 3.037a10.365 10.365 0 012.66-.345c5.205 0 9.424 3.817 9.424 8.526 0 2.768-1.458 5.227-3.716 6.785-.739 4.042-4.62 7.125-9.297 7.125-2.413 0-4.615-.821-6.282-2.171-1.667 1.35-3.868 2.171-6.282 2.171-5.204 0-9.423-3.817-9.423-8.525 0-3.713 2.622-6.871 6.282-8.041z" fill="#0C5E08"/>
        <path d="M49.798 191.459c0 1.576-.037 2.959 1.142 4.138.857.856 1.5 1.594 2.71 1.997m-2.7-9.683c.73.16 1.27.745 1.638 1.382.212.365.586.668.804 1.06.216.389.526.94.594 1.382.044.286.005.609.005.896v.348m1.566-11.058c1.445-1.889 4.832-3.02 7.004-1.935m-4.608 10.505c.615.615 1.07 1.108 1.383 1.915.18.469.292 1.011.414 1.5.158.632.077 1.465.041 2.114-.013.232-.478 1.637-.547 1.567m7.556-.645c1.441 0 2.778-.058 4.147-.574 1.441-.543 2.555-1.653 3.501-2.836m-.46-13.269c.657.514 1.12 1.249 1.617 1.889.41.526.795 1.156.942 1.817.193.868.39 1.659.39 2.555 0 .651-.093 1.301-.093 1.94m-6.358-5.99c0 .717-.115 1.63.204 2.304.234.493.721.938.902 1.433.403 1.111 1.713 1.625 2.211 2.622m-16.218-3.226c1.38 0 2.802.292 4.146-.092.506-.144 1.194-.37 1.613-.696.226-.176.48-.3.691-.502.266-.253 1.014-.625 1.014-1.013m-2.158 10.279c.513-.778 1.4-1.325 2.124-1.888a7.744 7.744 0 012.325-1.219 16.158 16.158 0 014.912-.747m-4.326-9.99c-.648.119-1.574 1.002-1.574 1.73m-12.979 3.933c.783.306 1.338 1.025 1.338 1.888m12.507-3.225c0 .64-.076 1.234.393 1.731.37.392.792 1.025 1.259 1.258" stroke="#119C0A" stroke-width=".4" stroke-linecap="round" stroke-linejoin="round"/>
    </g>
    <g>
        <path d="M101.556 196c0 4.563-1.63 9.235-3.556 11h8c-2.222-6.519-2.222-9.778-.889-11-1.185.136-3.555.326-3.555 0z" fill="#5F2705"/>
        <path d="M92.282 184.562v-.036c0-4.709 4.219-8.526 9.423-8.526 2.894 0 5.482 1.18 7.211 3.037a10.367 10.367 0 012.661-.345c5.204 0 9.423 3.817 9.423 8.526 0 2.768-1.458 5.227-3.716 6.785-.738 4.042-4.62 7.125-9.297 7.125-2.413 0-4.615-.821-6.282-2.171-1.667 1.35-3.868 2.171-6.282 2.171-5.204 0-9.423-3.817-9.423-8.525 0-3.713 2.622-6.871 6.282-8.041z" fill="#0C5E08"/>
        <path d="M89.799 191.459c0 1.576-.038 2.959 1.14 4.138.858.856 1.502 1.594 2.711 1.997m-2.7-9.683c.73.16 1.27.745 1.638 1.382.212.365.586.668.804 1.06.216.389.526.94.594 1.382.044.286.005.609.005.896v.348m1.566-11.058c1.445-1.889 4.832-3.02 7.004-1.935m-4.608 10.505c.615.615 1.07 1.108 1.383 1.915.18.469.292 1.011.414 1.5.158.632.077 1.465.041 2.114-.013.232-.478 1.637-.547 1.567m7.556-.645c1.441 0 2.778-.058 4.147-.574 1.441-.543 2.555-1.653 3.501-2.836m-.46-13.269c.657.514 1.119 1.249 1.617 1.889.41.526.795 1.156.942 1.817.193.868.389 1.659.389 2.555 0 .651-.092 1.301-.092 1.94m-6.358-5.99c0 .717-.115 1.63.205 2.304.233.493.72.938.901 1.433.403 1.111 1.713 1.625 2.211 2.622m-16.218-3.226c1.38 0 2.802.292 4.146-.092.506-.144 1.194-.37 1.613-.696.226-.176.48-.3.691-.502.266-.253 1.014-.625 1.014-1.013m-2.158 10.279c.513-.778 1.4-1.325 2.124-1.888a7.742 7.742 0 012.325-1.219 16.159 16.159 0 014.912-.747m-4.326-9.99c-.648.119-1.574 1.002-1.574 1.73m-12.979 3.933c.783.306 1.337 1.025 1.337 1.888m12.508-3.225c0 .64-.076 1.234.393 1.731.37.392.792 1.025 1.259 1.258" stroke="#119C0A" stroke-width=".4" stroke-linecap="round" stroke-linejoin="round"/>
    </g>
    <g>
        <path d="M141.556 196c0 4.563-1.63 9.235-3.556 11h8c-2.222-6.519-2.222-9.778-.889-11-1.185.136-3.555.326-3.555 0z" fill="#5F2705"/>
        <path d="M132.282 184.562v-.036c0-4.709 4.219-8.526 9.423-8.526 2.894 0 5.482 1.18 7.211 3.037a10.367 10.367 0 012.661-.345c5.204 0 9.423 3.817 9.423 8.526 0 2.768-1.458 5.227-3.716 6.785-.738 4.042-4.62 7.125-9.297 7.125-2.413 0-4.615-.821-6.282-2.171-1.667 1.35-3.869 2.171-6.282 2.171-5.204 0-9.423-3.817-9.423-8.525 0-3.713 2.622-6.871 6.282-8.041z" fill="#0C5E08"/>
        <path d="M129.798 191.459c0 1.576-.037 2.959 1.142 4.138.857.856 1.501 1.594 2.71 1.997m-2.7-9.683c.73.16 1.269.745 1.638 1.382.212.365.586.668.804 1.06.216.389.526.94.594 1.382.044.286.005.609.005.896v.348m1.566-11.058c1.445-1.889 4.832-3.02 7.004-1.935m-4.608 10.505c.615.615 1.071 1.108 1.383 1.915.181.469.292 1.011.414 1.5.158.632.077 1.465.041 2.114-.013.232-.478 1.637-.548 1.567m7.557-.645c1.441 0 2.778-.058 4.147-.574 1.441-.543 2.555-1.653 3.501-2.836m-.46-13.269c.657.514 1.119 1.249 1.617 1.889.41.526.795 1.156.942 1.817.193.868.389 1.659.389 2.555 0 .651-.092 1.301-.092 1.94m-6.358-5.99c0 .717-.115 1.63.205 2.304.233.493.72.938.901 1.433.403 1.111 1.713 1.625 2.211 2.622m-16.218-3.226c1.38 0 2.802.292 4.146-.092.506-.144 1.194-.37 1.613-.696.226-.176.48-.3.691-.502.266-.253 1.014-.625 1.014-1.013m-2.158 10.279c.513-.778 1.4-1.325 2.124-1.888a7.742 7.742 0 012.325-1.219 16.159 16.159 0 014.912-.747m-4.326-9.99c-.648.119-1.574 1.002-1.574 1.73m-12.979 3.933c.783.306 1.338 1.025 1.338 1.888m12.507-3.225c0 .64-.076 1.234.393 1.731.37.392.792 1.025 1.259 1.258" stroke="#119C0A" stroke-width=".4" stroke-linecap="round" stroke-linejoin="round"/>
    </g>
    <g>
        <path d="M181.556 196c0 4.563-1.63 9.235-3.556 11h8c-2.222-6.519-2.222-9.778-.889-11-1.185.136-3.555.326-3.555 0z" fill="#5F2705"/>
        <path d="M172.282 184.562v-.036c0-4.709 4.219-8.526 9.423-8.526 2.894 0 5.482 1.18 7.211 3.037a10.367 10.367 0 012.661-.345c5.204 0 9.423 3.817 9.423 8.526 0 2.768-1.458 5.227-3.716 6.785-.738 4.042-4.62 7.125-9.297 7.125-2.413 0-4.615-.821-6.282-2.171-1.667 1.35-3.869 2.171-6.282 2.171-5.204 0-9.423-3.817-9.423-8.525 0-3.713 2.622-6.871 6.282-8.041z" fill="#0C5E08"/>
        <path d="M169.798 191.459c0 1.576-.037 2.959 1.142 4.138.857.856 1.501 1.594 2.71 1.997m-2.7-9.683c.73.16 1.269.745 1.638 1.382.212.365.586.668.804 1.06.216.389.526.94.594 1.382.044.286.005.609.005.896v.348m1.566-11.058c1.445-1.889 4.832-3.02 7.004-1.935m-4.608 10.505c.615.615 1.071 1.108 1.383 1.915.181.469.292 1.011.414 1.5.158.632.077 1.465.041 2.114-.013.232-.478 1.637-.548 1.567m7.557-.645c1.441 0 2.778-.058 4.147-.574 1.441-.543 2.555-1.653 3.501-2.836m-.46-13.269c.657.514 1.119 1.249 1.617 1.889.41.526.795 1.156.942 1.817.193.868.389 1.659.389 2.555 0 .651-.092 1.301-.092 1.94m-6.358-5.99c0 .717-.115 1.63.205 2.304.233.493.72.938.901 1.433.403 1.111 1.713 1.625 2.211 2.622m-16.218-3.226c1.38 0 2.802.292 4.146-.092.506-.144 1.194-.37 1.613-.696.226-.176.48-.3.691-.502.266-.253 1.014-.625 1.014-1.013m-2.158 10.279c.513-.778 1.4-1.325 2.124-1.888a7.742 7.742 0 012.325-1.219 16.159 16.159 0 014.912-.747m-4.326-9.99c-.648.119-1.574 1.002-1.574 1.73m-12.979 3.933c.783.306 1.338 1.025 1.338 1.888m12.507-3.225c0 .64-.076 1.234.393 1.731.37.392.792 1.025 1.259 1.258" stroke="#119C0A" stroke-width=".4" stroke-linecap="round" stroke-linejoin="round"/>
    </g>
    <g>
        <path d="M221.556 196c0 4.563-1.63 9.235-3.556 11h8c-2.222-6.519-2.222-9.778-.889-11-1.185.136-3.555.326-3.555 0z" fill="#5F2705"/>
        <path d="M212.282 184.562v-.036c0-4.709 4.219-8.526 9.423-8.526 2.894 0 5.482 1.18 7.211 3.037a10.367 10.367 0 012.661-.345c5.204 0 9.423 3.817 9.423 8.526 0 2.768-1.458 5.227-3.716 6.785-.738 4.042-4.62 7.125-9.297 7.125-2.413 0-4.615-.821-6.282-2.171-1.667 1.35-3.869 2.171-6.282 2.171-5.204 0-9.423-3.817-9.423-8.525 0-3.713 2.622-6.871 6.282-8.041z" fill="#0C5E08"/>
        <path d="M209.798 191.459c0 1.576-.037 2.959 1.142 4.138.857.856 1.501 1.594 2.71 1.997m-2.7-9.683c.73.16 1.269.745 1.638 1.382.212.365.586.668.804 1.06.216.389.526.94.594 1.382.044.286.005.609.005.896v.348m1.566-11.058c1.445-1.889 4.832-3.02 7.004-1.935m-4.608 10.505c.615.615 1.071 1.108 1.383 1.915.181.469.292 1.011.414 1.5.158.632.077 1.465.041 2.114-.013.232-.478 1.637-.548 1.567m7.557-.645c1.441 0 2.778-.058 4.147-.574 1.441-.543 2.555-1.653 3.501-2.836m-.46-13.269c.657.514 1.119 1.249 1.617 1.889.41.526.795 1.156.942 1.817.193.868.389 1.659.389 2.555 0 .651-.092 1.301-.092 1.94m-6.358-5.99c0 .717-.115 1.63.205 2.304.233.493.72.938.901 1.433.403 1.111 1.713 1.625 2.211 2.622m-16.218-3.226c1.38 0 2.802.292 4.146-.092.506-.144 1.194-.37 1.613-.696.226-.176.48-.3.691-.502.266-.253 1.014-.625 1.014-1.013m-2.158 10.279c.513-.778 1.4-1.325 2.124-1.888a7.742 7.742 0 012.325-1.219 16.159 16.159 0 014.912-.747m-4.326-9.99c-.648.119-1.574 1.002-1.574 1.73m-12.979 3.933c.783.306 1.338 1.025 1.338 1.888m12.507-3.225c0 .64-.076 1.234.393 1.731.37.392.792 1.025 1.259 1.258" stroke="#119C0A" stroke-width=".4" stroke-linecap="round" stroke-linejoin="round"/>
    </g>
    <g fill="#fff">
        <path d="M245 187.468l2-1.468 2 1.468V209h-4v-21.532z"/>
        <path d="M249 206v-4H37v4h212zM249 197v-4H37v4h212z"/>
        <path d="M233 187.468l2-1.468 2 1.468V209h-4v-21.532zM219 187.468l2-1.468 2 1.468V209h-4v-21.532zM205 187.468l2-1.468 2 1.468V209h-4v-21.532zM191 187.468l2-1.468 2 1.468V209h-4v-21.532zM177 187.468l2-1.468 2 1.468V209h-4v-21.532zM163 187.468l2-1.468 2 1.468V209h-4v-21.532zM149 187.468l2-1.468 2 1.468V209h-4v-21.532zM135 187.468l2-1.468 2 1.468V209h-4v-21.532zM121 187.468l2-1.468 2 1.468V209h-4v-21.532zM107 187.468l2-1.468 2 1.468V209h-4v-21.532zM93 187.468L95 186l2 1.468V209h-4v-21.532zM79 187.468L81 186l2 1.468V209h-4v-21.532zM65 187.468L67 186l2 1.468V209h-4v-21.532zM51 187.468L53 186l2 1.468V209h-4v-21.532zM37 187.468L39 186l2 1.468V209h-4v-21.532z"/>
    </g>
</svg>
