<svg width="61" height="89" viewBox="0 0 61 89" fill="none" xmlns="http://www.w3.org/2000/svg">
    <g id="sheep-dtl">
        <g id="leg-dlt">
            <g id="leg-dtl" fill="#2F1B0A">
                <path id="Vector 9" d="M20.47 80h5.352c.5 2 .5 4-.5 5H20.47c-.668-1.284-.584-4.41 0-5z"/>
                <path id="Vector 10" d="M20.47 80h5.352c.5 2 .5 4-.5 5H20.47c-.668-1.284-.584-4.41 0-5z"/>
            </g>
            <g id="leg-dtl_2">
                <path id="Union" d="M20.277 52h5.5l-1 12h-.018a1.992 1.992 0 01-.23 2.32l.248 9.43 1 4.5h-5.5l1-4.5.248-9.43a1.992 1.992 0 01-.498-1.32c0-.364.097-.706.267-1h-.017l-1-12z" fill="#FED8AC"/>
            </g>
        </g>
        <g id="leg-dlt_2">
            <g id="leg-dtl_3" fill="#2F1B0A">
                <path id="Vector 9_2" d="M35.47 80h5.352c.5 2 .5 4-.5 5H35.47c-.668-1.284-.584-4.41 0-5z"/>
                <path id="Vector 10_2" d="M35.47 80h5.352c.5 2 .5 4-.5 5H35.47c-.668-1.284-.584-4.41 0-5z"/>
            </g>
            <g id="leg-dtl_4">
                <path id="Union_2" d="M35.277 52h5.5l-1 12h-.018a1.992 1.992 0 01-.23 2.32l.248 9.43 1 4.5h-5.5l1-4.5.248-9.43a1.992 1.992 0 01-.498-1.32c0-.364.097-.706.267-1h-.017l-1-12z" fill="#FED8AC"/>
            </g>
        </g>
        <path id="Union_3" d="M43 2c-.478 0-.943.056-1.388.161A5.987 5.987 0 0037 0a5.973 5.973 0 00-3.5 1.126A5.973 5.973 0 0030 0a5.975 5.975 0 00-3.808 1.363l-.09.016A5.987 5.987 0 0024 1a5.995 5.995 0 00-5.03 2.726c-.187.094-.374.19-.56.288a6.003 6.003 0 00-6.153 4.243 6.006 6.006 0 00-4.216 5.041l-.027.038a6.003 6.003 0 00-4.01 5.465A5.998 5.998 0 001 24c0 .758.14 1.483.397 2.151A5.976 5.976 0 000 30c0 1.306.417 2.515 1.126 3.5A5.973 5.973 0 000 37c0 1.854.84 3.511 2.161 4.612C2.056 42.057 2 42.522 2 43c0 1.854.84 3.511 2.161 4.612a6.003 6.003 0 003.848 7.05 6 6 0 005.319 6.3 6.003 6.003 0 007.06 3.877A5.987 5.987 0 0025 67a5.972 5.972 0 003-.803c.883.51 1.907.803 3 .803a5.993 5.993 0 004.93-2.58c.346-.075.69-.157 1.03-.246a6.003 6.003 0 008.701-3.184A5.943 5.943 0 0046 61a5.989 5.989 0 004.673-2.236 6.005 6.005 0 004.29-5.092 6.003 6.003 0 003.64-7.823A5.976 5.976 0 0060 42c0-.758-.14-1.483-.397-2.151A5.976 5.976 0 0061 36a5.976 5.976 0 00-1.397-3.849A5.986 5.986 0 0060 30a5.976 5.976 0 00-1.397-3.849A5.986 5.986 0 0059 24a5.976 5.976 0 00-1.397-3.849A5.986 5.986 0 0058 18a5.998 5.998 0 00-3.003-5.2 6 6 0 00-6.08-5.8A6.002 6.002 0 0043 2z" fill="#F8EFEF"/>
        <g id="lower-jaw">
            <path id="Vector 6" d="M27.266 31c-2 9 8 9.5 6 0h-6z" fill="#E6C49D"/>
            <path id="Subtract" d="M29.081 36.418c0-.157-.178-.285-.398-.285-.22 0-.398.127-.398.285v.237c0 .074.087.323.087.323.709.376.894.522 1.894.522 1.5 0 1.468-.366 2-.5v-.582c0-.157-.178-.285-.398-.285-.22 0-.398.127-.398.285 0-.157-.178-.285-.398-.285-.22 0-.398.127-.398.285 0-.157-.179-.285-.399-.285-.22 0-.398.127-.398.285 0-.157-.178-.285-.398-.285-.22 0-.398.127-.398.285z" fill="snow"/>
        </g>
        <path id="Vector 3" d="M47 20.072c-15.2-24-28.333-9.5-33 .5.5 2 6.5-3.072 8.5-7.072-1 7.928 2.02 16.224 3.5 20.072 2.5 6.5 7.019 5.449 9 0 2-5.5 4-13.572 3-20.072 2.5 5.5 8 8.072 9 6.572z" fill="#FED8AC"/>
        <g id="sheep-eye">
            <ellipse id="iris" rx="1.655" ry="1.421" transform="matrix(-.9158 -.40163 -.34116 .94 24.288 15.288)" fill="#924A08"/>
            <ellipse id="pupil" rx=".908" ry="1.072" transform="matrix(-.9158 -.40163 -.34116 .94 24.209 15.248)" fill="#0A0909"/>
            <path id="Ellipse 2" d="M26.142 15.72a1.905 1.905 0 00-3.709-.866l1.855.434 1.854.433z" fill="#FFE6C9"/>
        </g>
        <g id="sheep-eye_2">
            <ellipse id="iris_2" rx="1.655" ry="1.421" transform="matrix(.9158 -.40163 .34116 .94 36.288 15.287)" fill="#924A08"/>
            <ellipse id="pupil_2" rx=".908" ry="1.072" transform="matrix(.9158 -.40163 .34116 .94 36.367 15.248)" fill="#0A0909"/>
            <path id="Ellipse 2_2" d="M34.433 15.72a1.904 1.904 0 113.709-.866l-1.854.434-1.855.433z" fill="#FFE6C9"/>
        </g>
        <path id="Vector 5" d="M33.252 34.112L33.5 33c-2.215-2.007-5.5-1-6 0l.5 1.112c.923.397 2 .105 2 .105C30.462 35.22 30 37 27.5 36c1.385 2.007 5.5 1.5 6 0-2.5 1-2.5-1-2.5-1.783 1 .283 2.252-.105 2.252-.105z" fill="#0C0B0B"/>
        <g id="leg-dlt_3">
            <g id="leg-dtl_5" fill="#2F1B0A">
                <path id="Vector 9_3" d="M17.47 84h5.352c.5 2 .5 4-.5 5H17.47c-.668-1.284-.584-4.41 0-5z"/>
                <path id="Vector 10_3" d="M17.47 84h5.352c.5 2 .5 4-.5 5H17.47c-.668-1.284-.584-4.41 0-5z"/>
            </g>
            <g id="leg-dtl_6">
                <path id="Union_4" d="M17.277 56h5.5l-1 12h-.018a1.992 1.992 0 01-.23 2.32l.248 9.43 1 4.5h-5.5l1-4.5.248-9.43a1.992 1.992 0 01-.498-1.32c0-.364.097-.706.267-1h-.017l-1-12z" fill="#FED8AC"/>
            </g>
        </g>
        <g id="leg-dlt_4">
            <g id="leg-dtl_7" fill="#2F1B0A">
                <path id="Vector 9_4" d="M38.47 84h5.352c.5 2 .5 4-.5 5H38.47c-.668-1.284-.584-4.41 0-5z"/>
                <path id="Vector 10_4" d="M38.47 84h5.352c.5 2 .5 4-.5 5H38.47c-.668-1.284-.584-4.41 0-5z"/>
            </g>
            <g id="leg-dtl_8">
                <path id="Union_5" d="M38.277 56h5.5l-1 12h-.018a1.992 1.992 0 01-.23 2.32l.248 9.43 1 4.5h-5.5l1-4.5.248-9.43a1.992 1.992 0 01-.498-1.32c0-.364.097-.706.267-1h-.017l-1-12z" fill="#FED8AC"/>
            </g>
        </g>
    </g>
</svg>
