<svg width="1447" height="269" viewBox="0 0 1447 269" fill="none" xmlns="http://www.w3.org/2000/svg"><path d="M1200.51 14.782c-18.7 2.288-64.89 4.963-100.07-2.64-35.18-1.478-72.27-6.07-86.43-8.183 0 .528-67.215-1.583-85.41-3.959-20.632 4.43-27.642 6.796-32.115 8.306-5.388 1.819-7.092 2.394-24.491 3.837-25.473 5.279-68.23 13.99-86.425 17.685-1.011 1.848-17.892 5.755-77.328 6.6-59.436.844-98.555.351-110.685 0l-11.119 6.863-42.454 3.959-6.065 8.71c-28.303 3.168-100.274 9.029-161.732 7.128-6.914 1.565-12.953 2.996-18.304 4.263h-.001c-29.849 7.073-38.297 9.074-58.012 1.016l-52.057 2.64L0 97.667V269h1447V114.033l-246.49-99.25z" fill="#57994C"/><path d="M1415.57 7.589l31.43 2.499V269H754V106.651c17.129-2.2 32.981-14.46 38-18.707 2.329 0 17.179-1.026 55.5-5.224 32.895-5.756 37.987-12.4 42.5-16.977 1.169-1.185 3.166-2.608 4.5-3.482 4.742-3.106 71.509-12.86 123.5-17.689 19.14-1.777 37.41 1.143 48.29 0 18.36-6.197 42.23-9.384 51.71-9.3 9.15-1.333 33.66-5.308 62-8.707 12.77-8.796 52.44-13.895 70.41-16.477 5.65-2.333 19.86-6.997 31.43-6.997 13.97-5.598 34.43-2.333 42.91 0h73.85l16.97 4.498z" fill="#117600"/><path d="M0 16c14.961.221 54.541 1.505 73.293 8.412 40.894 2.214 65.829 6.42 67.824 6.42h.038c2.411 0 41.776-.004 60.619 6.38 12.424 4.21 6.17 8.897 18.638 10.004 12.966.443 73.31 2.435 82.287 4.428 2.504.535 4.387 1.07 6.345 1.627 8.572 2.436 18.584 5.282 88.409 10.328 92.959 1.24 122.184 1.993 125.176 2.214 5.652.295 25.135 2.347 57.85 8.192 48.813.688 90.403 3.914 168.02 13.726 22.299 2.82 47.573 6.182 76.846 10.184C879.205 109.428 1050.36 159.672 1059 161v108H0V16z" fill="#1E5515"/><path d="M12.925 108.653C9.939 112.301 0 112.556 0 112.382V269h972l-44.977-58.596c-17.158-9.463-59.469-30.022-91.453-36.546-16.658-9.162-62.068-27.486-110.443-27.486-24.884-1.389-92.63-5.212-122.888-8.27-37.823-3.821-36.419-3.033-129.982-3.207-60.197-11.963-74.466-9.061-75.461-9.061-42.999 5.419-112.971 2.423-140.011.165-4.977-.348-24.732-.705-60.166 1.24-58.228-11.811-81.658-20.416-94.1-24.237-24.386-3.822-48.785 4.435-89.594 5.651z" fill="#57994D"/><path d="M926.079 131.166c-12.774 4.703-28.608 7.386-33.93 7.688-59.477 0-136.218 6.933-167.154 10.4l-49.211 4.739c-40.915.829-125.08 3.6-132.265 8.665-14.47 4.296-32.074 21.629-58.519 24.342-21.156 2.171-41.5 19.5-148.5 55.5L261 269h1186V102l-67.86 7.687c-100.79-12.209-151.19 6.105-151.19 5.653-90.31-6.557-77.34-2.94-76.34-2.94-20.95 13.34-39.42 12.21-43.41 12.436-75.04-9.768-86.15-6.03-82.33-2.94-6.98.302-24.65 1.9-39.416 5.879-43.111-7.416-58.213-.829-60.375 3.391z" fill="#4E6B32"/><path d="M366.399 214.098c-17.053-4.498-51.835-11.876-57.453-9.108-.802.554-3.009 3.691-4.012 5.19l-44.64-8.65v3.46l-12.037 5.19-.975 3.918-8.545 1.81-9.038-.884-6.04 2.091c-6.52.346-25.159 3.684-39.203 14.48-1.003-1.384-28.264-13.406-85.443-.604-25.914-1.614-85.37-2.093-99.013 4.827V269h1447v-56.398l-29.09-7.266c-25.25 1.73-79.05 6.159-92.29 10.034-7.02 10.034-51.16 0-97.8-10.034-46.65-10.034-90.29-7.266-124.39-7.266-34.11 0-22.57 12.456-32.1 12.456-9.53 0-127.401-12.456-160.504-5.19-26.483 5.813-19.702-2.701-18.702-9.337-17.722 0-69.281 2.634-128.667 8.446-49.655-32.178-110.581-19.926-114.594-15.082-4.311 16.494-17.411 12.473-24.627 7.843-1.504-.675-3.544.807-15.581-7.843-8.828 16.884-71.265 19.882-101.526 19.306-7.022 1.614-29.83 6.807-66.344 12.066-25.279 5.259-61.178-2.254-74.386-6.637z" fill="#274422"/></svg>